<?xml version="1.0" standalone="no"?> <!DOCTYPE svg PUBLIC "-//W3C//DTD SVG 1.0//EN" "http://www.w3.org/TR/2001/REC-SVG-20010904/DTD/svg10.dtd" > <svg xmlns="http://www.w3.org/2000/svg" width="100%" height="100%">
<defs >
<font id="frutbold" horiz-adv-x="423" ><font-face
    font-family="Frutiger LT 47 LightCn"
    units-per-em="1000"
    panose-1="2 0 8 3 5 0 0 2 0 4"
    ascent="940"
    descent="-250"
    alphabetic="0" />
<missing-glyph horiz-adv-x="500" d="M442 8V504H58V8H442ZM50 512H450V0H50V512Z" />
<glyph unicode=" " glyph-name="space" horiz-adv-x="260" />
<glyph unicode="!" glyph-name="exclam" horiz-adv-x="370" d="M137 206H233L249 698H121L137 206ZM125 0H245V126H125V0Z" />
<glyph unicode="&quot;" glyph-name="quotedbl" horiz-adv-x="519" d="M291 502H391V750H291V502ZM128 502H228V750H128V502Z" />
<glyph unicode="#" glyph-name="numbersign" horiz-adv-x="520" d="M270 0H348L377 206H481V284H388L406 414H510V492H417L446 698H368L339 492H221L250 698H172L143 492H38V414H132L114 284H10V206H103L74 0H152L181 206H299L270 0ZM310 284H192L210 414H328L310 284Z" />
<glyph unicode="$" glyph-name="dollar" horiz-adv-x="520" d="M279 298L287 295Q308 286 322 278T346 257T358 228T362 186Q362 148 342 119T279 83V298ZM233 -95H279V-8Q365 -3 417 52T470 216Q470 276 440 319T344 387L284 410V617Q329 616 364 604T427 573L434
678Q416 686 378 696T284 708V787H238V706Q199 703 165 689T106 650T65 590T50 508Q50 474 60 448T90 400T135 362T193 333L233 317V81Q186 83 146 98T74 135L66 21Q89 11 129 2T233 -10V-95ZM238 429Q214 440 199 452T176 478T165 505T162 530Q162 543 165 556T178
582T201 603T238 615V429Z" />
<glyph unicode="%" glyph-name="percent" horiz-adv-x="833" d="M140 510Q140 638 197 638Q254 638 254 510Q254 382 197 382Q140 382 140 510ZM52 510Q52 415 89 364T197 312Q267 312 304 363T342 510Q342 605 305 656T197 708Q127 708 90 657T52 510ZM579 188Q579
316 636 316Q693 316 693 188Q693 60 636 60Q579 60 579 188ZM491 188Q491 93 528 42T636 -10Q706 -10 743 41T781 188Q781 283 744 334T636 386Q566 386 529 335T491 188ZM221 -34H299L615 732H537L221 -34Z" />
<glyph unicode="&amp;" glyph-name="ampersand" horiz-adv-x="648" d="M362 560Q362 538 354 520T333 487T305 459T274 437Q264 448 253 460T233 487T217 518T210 554Q210 589 232 609T287 630Q319 630 340 612T362 560ZM384 137Q366 114 340 99T280 84Q263 84
244 91T208 112T181 148T170 198Q170 247 192 275T243 321L384 137ZM492 0H628L518 140Q540 167 556 199T582 264T596 329T601 388H489Q489 350 482 307T451 229L341 372Q359 384 381 401T423 441T456 492T470 556Q470 582 461 609T430 658T375 694T293 708Q240
708 204 693T145 653T112 601T102 549Q102 522 108 501T125 461T149 426T176 394Q159 386 137 371T94 331T60 273T46 193Q46 153 59 116T101 51T173 7T275 -10Q308 -10 332 -5T376 11T410 34T442 64L492 0Z" />
<glyph unicode="&apos;" glyph-name="quotesingle" horiz-adv-x="260" d="M80 502H180V750H80V502Z" />
<glyph unicode="(" glyph-name="parenleft" horiz-adv-x="296" d="M278 -168Q223 -67 188 48T152 280Q152 396 187 511T278 728H182Q156 678 132 629T88 526T56 412T44 280Q44 208 56 148T87 34T131 -69T182 -168H278Z" />
<glyph unicode=")" glyph-name="parenright" horiz-adv-x="296" d="M18 728Q73 627 108 512T144 280Q144 164 109 49T18 -168H114Q139 -119 164 -70T208 34T240 148T252 280Q252 352 240 412T209 526T164 629T114 728H18Z" />
<glyph unicode="*" glyph-name="asterisk" horiz-adv-x="519" d="M123 403L201 350L261 468L321 350L399 403L312 506L437 536L407 625L293 567L309 698H213L230 567L114 625L83 536L209 506L123 403Z" />
<glyph unicode="+" glyph-name="plus" horiz-adv-x="600" d="M256 0H344V209H553V297H344V506H256V297H47V209H256V0Z" />
<glyph unicode="," glyph-name="comma" horiz-adv-x="260" d="M70 128L18 -120H114L190 128H70Z" />
<glyph unicode="-" glyph-name="hyphenminus" horiz-adv-x="315" d="M42 233H273V335H42V233Z" />
<glyph unicode="." glyph-name="period" horiz-adv-x="260" d="M70 0H190V130H70V0Z" />
<glyph unicode="/" glyph-name="slash" horiz-adv-x="278" d="M8 -10H92L270 708H182L8 -10Z" />
<glyph unicode="0" glyph-name="zero" horiz-adv-x="520" d="M164 349Q164 407 168 455T182 539T212 594T260 614Q290 614 308 594T337 539T352 456T356 349Q356 291 352 243T338 159T309 104T260 84Q231 84 212 103T183 158T168 242T164 349ZM40 349Q40 284 49
220T82 105T149 22T260 -10Q328 -10 371 22T438 105T471 220T480 349Q480 413 471 477T438 593T371 676T260 708Q192 708 150 676T83 593T49 478T40 349Z" />
<glyph unicode="1" glyph-name="one" horiz-adv-x="520" d="M234 0H358V698H252L82 550L141 464L234 551V0Z" />
<glyph unicode="2" glyph-name="two" horiz-adv-x="520" d="M62 0H458V102H204L229 129Q273 177 313 226T384 326T433 425T451 522Q451 560 441 594T406 653T344 693T250 708Q184 708 143 695T77 668L88 553Q97 560 109 569T138 586T177 600T228 606Q270 606 296
579T323 502Q323 463 305 421T257 336T190 249T114 162L62 103V0Z" />
<glyph unicode="3" glyph-name="three" horiz-adv-x="520" d="M50 20Q83 9 123 0T216 -10Q264 -10 307 3T384 42T438 107T458 199Q458 246 444 275T409 323T362 351T312 368V370Q329 372 352 380T396 407T432 455T447 532Q447 575 432 607T389 662T323 696T238
708Q178 708 137 698T70 679L77 572Q109 587 143 596T210 606Q232 606 252 601T288 584T313 555T323 513Q323 480 309 460T272 428T220 412T161 407H140V310Q161 313 191 313Q215 313 239 308T282 291T314 259T326 208Q326 153 290 123T198 92Q147 92 112 104T57
127L50 20Z" />
<glyph unicode="4" glyph-name="four" horiz-adv-x="520" d="M296 239H122L294 570H296V239ZM296 0H412V145H490V239H412V698H272L30 261V145H296V0Z" />
<glyph unicode="5" glyph-name="five" horiz-adv-x="520" d="M79 698V336Q95 341 123 349T195 358Q232 358 258 348T302 319T327 278T336 228Q336 168 302 130T204 92Q160 92 130 102T74 126L66 19Q91 11 132 1T227 -10Q281 -10 325 6T399 54T447 131T464 234Q464
285 449 325T407 392T346 434T270 449Q242 449 223 447T191 440V600H432V698H79Z" />
<glyph unicode="6" glyph-name="six" horiz-adv-x="520" d="M172 216Q172 276 194 311T262 347Q310 347 331 310T352 216Q352 154 331 119T262 84Q215 84 194 119T172 216ZM444 684Q426 691 395 699T315 708Q235 708 183 676T99 589T56 464T44 316Q44 248 54 189T91
86T160 16T271 -10Q320 -10 358 6T423 52T462 124T476 218Q476 275 461 317T420 388T361 431T290 445Q239 445 210 425T162 375L160 377Q161 409 168 449T192 525T240 585T322 610Q364 610 391 599T437 580L444 684Z" />
<glyph unicode="7" glyph-name="seven" horiz-adv-x="520" d="M111 0H249L458 586V698H62V596H338L111 0Z" />
<glyph unicode="8" glyph-name="eight" horiz-adv-x="520" d="M164 185Q164 225 180 252T229 302L253 319L279 303Q321 279 338 255T356 189Q356 141 332 111T260 81Q213 81 189 110T164 185ZM40 184Q40 143 55 108T98 46T167 5T258 -10Q305 -10 345 2T416 38T463
100T480 188Q480 249 449 290T372 355L346 369Q397 395 428 437T460 538Q460 580 444 611T400 664T336 697T262 708Q218 708 181 696T117 661T75 603T60 523Q60 462 89 425T171 361L136 344Q95 324 68 283T40 184ZM176 521Q176 566 200 591T262 617Q306 617 325
593T344 526Q344 503 337 485T319 453T294 427T269 405Q252 415 236 426T206 451T184 482T176 521Z" />
<glyph unicode="9" glyph-name="nine" horiz-adv-x="520" d="M168 482Q168 544 189 579T258 614Q305 614 326 579T348 482Q348 422 326 387T258 351Q210 351 189 388T168 482ZM76 14Q94 7 125 -1T205 -10Q285 -10 337 22T420 109T463 234T476 382Q476 449 466
508T429 612T360 682T249 708Q199 708 161 692T97 646T58 574T44 480Q44 423 59 381T100 310T159 267T230 253Q281 253 310 273T358 323L360 321Q358 289 352 249T328 173T280 113T198 88Q156 88 129 99T83 118L76 14Z" />
<glyph unicode=":" glyph-name="colon" horiz-adv-x="260" d="M70 0H190V130H70V0ZM70 385H190V515H70V385Z" />
<glyph unicode=";" glyph-name="semicolon" horiz-adv-x="260" d="M18 -120H114L190 128H70L18 -120ZM70 385H190V515H70V385Z" />
<glyph unicode="&lt;" glyph-name="less" horiz-adv-x="600" d="M553 515L47 292V214L553 -8V80L159 253L553 427V515Z" />
<glyph unicode="=" glyph-name="equal" horiz-adv-x="600" d="M47 314H553V402H47V314ZM47 104H553V192H47V104Z" />
<glyph unicode="&gt;" glyph-name="greater" horiz-adv-x="600" d="M47 -8L553 214V292L47 515V427L441 253L47 80V-8Z" />
<glyph unicode="?" glyph-name="question" horiz-adv-x="463" d="M173 204H281V218Q281 257 302 293T350 369Q376 407 397 449T419 540Q419 577 406 608T367 661T304 695T218 708Q164 708 124 698T68 681L74 572Q89 582 121 594T189 606Q231 606 261 581T291 505Q291
470 273 439T233 376Q210 344 192 312T173 244V204ZM167 0H287V126H167V0Z" />
<glyph unicode="@" glyph-name="at" horiz-adv-x="800" d="M280 308Q280 339 290 367T316 416T355 450T402 463Q445 463 468 440T492 380Q492 354 483 326T456 274T414 235T359 220Q324 220 302 244T280 308ZM646 148Q609 106 550 83T423 60Q359 60 305 78T210
133T148 222T125 347Q125 408 146 461T205 553T296 615T414 638Q469 638 518 623T605 577T663 501T685 398Q685 360 674 326T645 267T606 227T565 212Q539 212 539 237Q539 246 542 259T549 284L616 531H542L526 479Q506 516 475 531T409 547Q367 547 328 529T258
477T210 398T192 295Q192 261 201 232T228 182T269 148T324 136Q366 136 398 153T452 192H454Q456 163 473 150T514 136Q543 136 585 152T665 203T731 290T759 413Q759 480 732 534T658 627T548 687T415 708Q337 708 269 683T150 610T70 497T41 349Q41 263 70 197T150
84T270 14T419 -10Q511 -10 591 31T720 148H646Z" />
<glyph unicode="A" glyph-name="A" horiz-adv-x="611" d="M211 266L307 592H309L397 266H211ZM473 0H605L380 698H240L6 0H134L184 168H424L473 0Z" />
<glyph unicode="B" glyph-name="B" horiz-adv-x="556" d="M198 604H261Q307 604 335 580T364 510Q364 467 338 437T264 406H198V604ZM198 312H265Q324 312 350 282T376 205Q376 156 349 127T269 98H198V312ZM74 0H287Q333 0 373 13T442 50T487 111T504 196Q504
240 491 270T459 319T416 348T372 363V365Q389 371 409 381T447 410T476 456T488 526Q488 615 438 656T278 698H74V0Z" />
<glyph unicode="C" glyph-name="C" horiz-adv-x="556" d="M511 132Q489 116 458 106T379 96Q339 96 304 110T241 154T198 233T182 349Q182 417 198 465T241 543T303 588T379 602Q428 602 459 588T511 564L518 679Q498 687 458 697T363 708Q285 708 226 681T127
605T67 491T46 349Q46 272 66 207T127 93T227 18T367 -10Q415 -10 456 -3T518 15L511 132Z" />
<glyph unicode="D" glyph-name="D" horiz-adv-x="630" d="M68 0H250Q323 0 384 21T489 86T559 195T584 349Q584 523 500 610T250 698H68V0ZM196 600H239Q293 600 332 583T397 532T435 453T448 349Q448 292 436 246T398 166T333 116T239 98H196V600Z" />
<glyph unicode="E" glyph-name="E" horiz-adv-x="500" d="M74 0H451V102H202V308H428V410H202V596H441V698H74V0Z" />
<glyph unicode="F" glyph-name="F" horiz-adv-x="463" d="M74 0H202V304H417V406H202V596H427V698H74V0Z" />
<glyph unicode="G" glyph-name="G" horiz-adv-x="648" d="M352 293H458V105Q445 100 426 96T384 92Q335 92 297 110T234 161T195 242T182 349Q182 403 195 450T235 531T301 586T391 606Q439 606 480 594T552 563L559 678Q539 687 494 697T389 708Q305 708 241
681T134 606T68 493T46 349Q46 271 68 206T133 92T241 17T389 -10Q458 -10 504 1T578 26V391H352V293Z" />
<glyph unicode="H" glyph-name="H" horiz-adv-x="611" d="M74 0H202V308H409V0H537V698H409V414H202V698H74V0Z" />
<glyph unicode="I" glyph-name="I" horiz-adv-x="278" d="M75 0H203V698H75V0Z" />
<glyph unicode="J" glyph-name="J" horiz-adv-x="352" d="M158 698V205Q158 184 155 166T142 134T118 112T79 104Q59 104 45 108T20 117V7Q37 -1 63 -5T112 -10Q147 -10 178 2T234 40T272 106T286 204V698H158Z" />
<glyph unicode="K" glyph-name="K" horiz-adv-x="574" d="M74 0H202V328H205L415 0H570L314 369L551 698H404L205 402H202V698H74V0Z" />
<glyph unicode="L" glyph-name="L" horiz-adv-x="444" d="M68 0H426V102H196V698H68V0Z" />
<glyph unicode="M" glyph-name="M" horiz-adv-x="815" d="M626 0H742V698H557L410 177H408L264 698H73V0H189V582H191L358 0H449L624 582H626V0Z" />
<glyph unicode="N" glyph-name="N" horiz-adv-x="648" d="M73 0H189V544H191L422 0H575V698H459V150H457L225 698H73V0Z" />
<glyph unicode="O" glyph-name="O" horiz-adv-x="648" d="M178 349Q178 421 189 471T220 551T267 596T324 610Q354 610 381 596T427 552T458 471T470 349Q470 277 459 227T428 147T381 102T324 88Q294 88 267 102T221 146T190 227T178 349ZM46 349Q46 255 69 187T130
76T219 11T324 -10Q378 -10 428 11T517 75T579 187T602 349Q602 443 579 511T518 622T429 687T324 708Q270 708 220 687T131 623T69 511T46 349Z" />
<glyph unicode="P" glyph-name="P" horiz-adv-x="519" d="M196 371V600H244Q304 600 331 572T359 486Q359 429 332 400T244 371H196ZM68 0H196V273H268Q377 273 432 329T487 486Q487 586 432 642T268 698H68V0Z" />
<glyph unicode="Q" glyph-name="Q" horiz-adv-x="648" d="M178 349Q178 421 189 471T220 551T267 596T324 610Q354 610 381 596T427 552T458 471T470 349Q470 277 459 227T428 147T381 102T324 88Q294 88 267 102T221 146T190 227T178 349ZM444 -133H591L453 23Q485
41 512 70T560 139T591 232T602 349Q602 443 579 511T518 622T429 687T324 708Q270 708 220 687T131 623T69 511T46 349Q46 255 69 187T130 76T219 11T324 -10H346L444 -133Z" />
<glyph unicode="R" glyph-name="R" horiz-adv-x="556" d="M68 0H196V300H225Q260 300 284 285T322 227L391 0H527L436 266Q428 290 419 305T399 329T379 341T359 347V350Q418 359 456 402T494 514Q494 562 479 596T437 653T371 687T286 698H68V0ZM196 394V600H248Q302
600 332 580T362 500Q362 446 331 420T248 394H196Z" />
<glyph unicode="S" glyph-name="S" horiz-adv-x="500" d="M58 21Q110 -10 217 -10Q267 -10 309 3T383 42T433 107T451 200Q451 237 444 264T421 313T384 353T330 388L255 430Q240 438 227 446T204 465T187 490T181 524Q181 560 205 583T278 606Q323 606 354 596T409
576L415 683Q400 688 363 698T269 708Q225 708 185 696T115 660T67 601T49 518Q49 450 80 407T163 335L228 299Q251 286 268 275T296 252T313 226T319 193Q319 167 311 148T287 117T253 98T213 92Q162 92 123 107T65 135L58 21Z" />
<glyph unicode="T" glyph-name="T" horiz-adv-x="481" d="M177 0H305V596H460V698H21V596H177V0Z" />
<glyph unicode="U" glyph-name="U" horiz-adv-x="611" d="M68 698V246Q68 177 86 129T137 49T213 4T306 -10Q355 -10 398 4T473 49T524 128T543 246V698H415V246Q415 159 388 126T306 92Q250 92 223 125T196 246V698H68Z" />
<glyph unicode="V" glyph-name="V" horiz-adv-x="574" d="M218 0H353L566 698H434L289 160H287L146 698H8L218 0Z" />
<glyph unicode="W" glyph-name="W" horiz-adv-x="833" d="M522 0H675L819 698H703L601 160H599L495 698H339L234 160H232L134 698H14L155 0H306L416 572H418L522 0Z" />
<glyph unicode="X" glyph-name="X" horiz-adv-x="574" d="M422 0H568L366 370L554 698H417L288 473L178 698H31L214 370L6 0H147L292 260L422 0Z" />
<glyph unicode="Y" glyph-name="Y" horiz-adv-x="556" d="M214 0H342V277L548 698H410L282 419L146 698H8L214 280V0Z" />
<glyph unicode="Z" glyph-name="Z" horiz-adv-x="500" d="M36 0H464V102H182L460 592V698H44V596H311L36 112V0Z" />
<glyph unicode="[" glyph-name="bracketleft" horiz-adv-x="296" d="M74 -168H256V-90H170V650H256V728H74V-168Z" />
<glyph unicode="\" glyph-name="backslash" horiz-adv-x="278" d="M186 -10H270L96 708H8L186 -10Z" />
<glyph unicode="]" glyph-name="bracketright" horiz-adv-x="296" d="M40 -168H222V728H40V650H126V-90H40V-168Z" />
<glyph unicode="^" glyph-name="asciicircum" horiz-adv-x="600" d="M60 294H148L300 607L452 294H540L342 698H258L60 294Z" />
<glyph unicode="_" glyph-name="underscore" horiz-adv-x="500" d="M0 -125H500V-75H0V-125Z" />
<glyph unicode="`" glyph-name="grave" horiz-adv-x="222" d="M-10 716L92 572H170L106 716H-10Z" />
<glyph unicode="a" glyph-name="a" horiz-adv-x="500" d="M88 385Q97 392 111 401T144 417T184 430T229 435Q256 435 274 427T303 406T320 374T325 337V318H300Q241 318 192 311T106 283T50 229T29 143Q29 107 42 79T76 32T125 2T183 -8Q238 -8 271 15T327 70H329Q329
51 330 33T336 0H448Q446 15 444 39T441 91V316Q441 364 433 402T403 468T343 509T244 523Q185 523 146 510T81 485L88 385ZM325 223Q325 154 303 115T224 76Q188 76 167 98T145 155Q145 211 189 231T314 252H325V223Z" />
<glyph unicode="b" glyph-name="b" horiz-adv-x="537" d="M58 750V88Q58 60 57 37T54 0H170Q172 11 173 32T174 80H177Q184 63 195 48T223 20T261 0T314 -8Q362 -8 396 13T452 71T484 155T495 257Q495 384 448 453T317 523Q289 523 268 516T230 497T202 471T184
441H182V750H58ZM182 259Q182 296 187 328T204 383T234 419T278 432Q330 432 350 386T371 262Q371 172 353 128T280 83Q253 83 234 97T204 135T187 191T182 259Z" />
<glyph unicode="c" glyph-name="c" horiz-adv-x="426" d="M399 111Q386 103 360 95T311 86Q275 86 249 99T205 135T179 189T170 256Q170 339 202 384T305 429Q331 429 353 421T392 404L399 502Q382 509 351 516T291 523Q226 523 179 502T102 445T57 361T42 257Q42
202 56 154T99 70T174 13T284 -8Q322 -8 353 -2T406 13L399 111Z" />
<glyph unicode="d" glyph-name="d" horiz-adv-x="537" d="M355 750V441H353Q346 456 335 470T308 497T270 516T220 523Q136 523 89 454T42 257Q42 203 52 155T84 71T140 14T223 -8Q253 -8 275 -1T314 19T341 47T360 80H363Q363 54 364 33T367 0H483Q481 14 480
37T479 88V750H355ZM166 262Q166 339 186 385T259 432Q284 432 302 419T332 383T349 328T355 259Q355 223 350 191T334 135T303 97T257 83Q203 83 185 127T166 262Z" />
<glyph unicode="e" glyph-name="e" horiz-adv-x="500" d="M428 123Q411 110 381 97T293 83Q221 83 192 120T162 224H460V248Q460 327 444 379T399 464T333 509T254 523Q205 523 166 502T99 444T57 358T42 250Q42 198 56 151T99 69T173 13T280 -8Q336 -8 375 4T434
25L428 123ZM162 302Q162 327 167 352T183 396T212 427T254 439Q340 439 340 302H162Z" />
<glyph unicode="f" glyph-name="f" horiz-adv-x="333" d="M96 0H220V424H314V515H220V604Q220 633 236 650T279 668Q293 668 305 666T328 660L333 750Q315 754 292 758T244 762Q202 762 174 750T128 719T103 674T96 620V515H10V424H96V0Z" />
<glyph unicode="g" glyph-name="g" horiz-adv-x="537" d="M170 263Q170 342 190 385T260 429Q305 430 332 388T360 264Q360 176 335 134T251 91Q235 91 221 101T195 132T177 185T170 263ZM65 -190Q88 -198 134 -210T242 -222Q313 -222 359 -202T432 -145T469 -57T480
54V434Q480 454 481 474T484 515H372Q371 495 370 475T368 435H364Q354 452 342 468T314 496T277 515T228 523Q177 523 142 501T85 443T52 358T42 256Q42 178 60 128T105 50T163 11T222 0Q252 0 274 8T313 28T339 56T358 87H360V38Q360 8 355 -21T336 -73T295 -110T224
-124Q175 -124 135 -108T72 -80L65 -190Z" />
<glyph unicode="h" glyph-name="h" horiz-adv-x="519" d="M56 0H180V300Q180 325 184 347T199 385T227 411T268 421Q306 421 322 395T339 309V0H463V332Q463 371 456 405T431 466T384 508T311 523Q282 523 262 516T227 498T202 474T183 449H180V750H56V0Z" />
<glyph unicode="i" glyph-name="i" horiz-adv-x="260" d="M68 0H192V515H68V0ZM66 612H194V734H66V612Z" />
<glyph unicode="j" glyph-name="j" horiz-adv-x="260" d="M68 515V-41Q68 -71 65 -88T56 -114T42 -125T23 -128Q12 -128 3 -126T-14 -122L-18 -216Q-3 -218 16 -220T58 -222Q98 -222 124 -210T165 -173T186 -110T192 -21V515H68ZM66 612H194V734H66V612Z" />
<glyph unicode="k" glyph-name="k" horiz-adv-x="500" d="M56 0H180V251H183L339 0H483L285 282L466 515H334L183 309H180V750H56V0Z" />
<glyph unicode="l" glyph-name="l" horiz-adv-x="260" d="M68 0H192V750H68V0Z" />
<glyph unicode="m" glyph-name="m" horiz-adv-x="778" d="M53 0H177V312Q177 333 182 353T198 388T224 412T261 421Q296 421 311 397T327 325V0H451V312Q451 333 456 353T472 388T498 412T535 421Q570 421 585 397T601 325V0H725V318Q725 365 718 403T693 467T648
508T577 523Q548 523 527 515T489 495T460 469T439 441Q433 451 425 465T401 492T364 514T309 523Q282 523 261 515T225 494T198 465T179 434H177Q177 454 176 474T173 515H49Q51 501 52 480T53 431V0Z" />
<glyph unicode="n" glyph-name="n" horiz-adv-x="519" d="M56 0H180V300Q180 325 184 347T199 385T227 411T268 421Q306 421 322 395T339 309V0H463V332Q463 371 456 405T431 466T384 508T311 523Q279 523 257 514T218 492T192 463T174 436H175H172Q172 456 171
475T168 515H52Q54 498 55 476T56 430V0Z" />
<glyph unicode="o" glyph-name="o" horiz-adv-x="537" d="M170 258Q170 290 174 322T189 379T220 419T269 435Q299 435 318 420T348 379T363 322T367 258Q367 226 363 194T348 137T318 96T269 80Q239 80 220 95T190 136T174 194T170 258ZM42 258Q42 177 62 126T116
44T189 3T269 -8Q308 -8 348 3T421 44T474 125T495 258Q495 337 475 388T422 469T349 511T269 523Q230 523 190 511T116 469T63 388T42 258Z" />
<glyph unicode="p" glyph-name="p" horiz-adv-x="537" d="M58 -216H182V74H184Q191 59 202 45T229 18T267 -1T317 -8Q401 -8 448 61T495 258Q495 312 485 360T453 444T397 501T314 523Q284 523 262 516T223 496T196 467T177 435H174Q174 461 173 482T170 515H54Q56
501 57 478T58 427V-216ZM182 256Q182 292 187 324T203 380T234 418T280 432Q334 432 352 388T371 253Q371 176 351 130T278 83Q252 83 234 96T205 132T188 186T182 256Z" />
<glyph unicode="q" glyph-name="q" horiz-adv-x="537" d="M355 -216H479V427Q479 455 480 478T483 515H367Q365 504 364 483T363 435H360Q352 451 341 467T314 495T276 515T223 523Q175 523 141 502T85 444T53 360T42 258Q42 131 89 62T220 -8Q248 -8 269 -1T307
18T335 44T353 74H355V-216ZM166 253Q166 343 184 387T257 432Q284 432 303 418T333 380T350 324T355 256Q355 218 350 187T333 132T303 96T259 83Q207 83 187 129T166 253Z" />
<glyph unicode="r" glyph-name="r" horiz-adv-x="352" d="M60 0H184V282Q184 318 193 342T218 381T253 402T291 409Q308 409 326 404V520Q321 521 316 522T305 523Q276 523 254 513T216 487T190 454T174 421H172Q172 444 171 468T168 515H56Q58 498 59 476T60 430V0Z" />
<glyph unicode="s" glyph-name="s" horiz-adv-x="407" d="M36 17Q56 9 93 1T179 -8Q221 -8 256 2T316 32T356 80T371 144Q371 166 365 183T347 216T317 245T275 274L214 313Q187 330 172 344T156 379Q156 402 172 415T227 429Q261 429 287 422T336 406L343 502Q334
505 299 514T214 523Q173 523 140 510T84 477T49 430T36 377Q36 347 45 325T71 286T106 257T145 232L196 202Q230 182 240 167T251 137Q251 107 228 97T171 86Q149 86 129 90T92 100T62 111T42 120L36 17Z" />
<glyph unicode="t" glyph-name="t" horiz-adv-x="352" d="M102 515H20V424H102V142Q102 61 139 27T246 -8Q274 -8 294 -3T329 9V97Q322 93 311 90T282 86Q255 86 241 100T226 157V424H329V515H226V659L102 621V515Z" />
<glyph unicode="u" glyph-name="u" horiz-adv-x="519" d="M463 515H339V220Q339 195 335 173T321 133T295 105T254 94Q215 94 198 120T180 206V515H56V183Q56 144 63 110T88 49T135 7T208 -8Q238 -8 260 0T298 21T325 49T345 79L344 80L347 79Q347 59 348 40T351
0H467Q465 17 464 39T463 85V515Z" />
<glyph unicode="v" glyph-name="v" horiz-adv-x="481" d="M167 0H313L471 515H351L245 118H243L138 515H10L167 0Z" />
<glyph unicode="w" glyph-name="w" horiz-adv-x="741" d="M464 0H599L736 515H616L533 114H531L446 515H305L218 114H216L133 515H5L144 0H280L370 401H372L464 0Z" />
<glyph unicode="x" glyph-name="x" horiz-adv-x="463" d="M2 0H134L229 191L324 0H461L306 278L449 515H321L236 350L155 515H15L157 278L2 0Z" />
<glyph unicode="y" glyph-name="y" horiz-adv-x="463" d="M133 515H5L176 -5L167 -49Q155 -89 141 -107T98 -124Q84 -124 73 -121T51 -114L44 -209Q58 -214 78 -218T123 -222Q154 -222 178 -213T219 -187T249 -148T270 -98L458 515H338L239 126H237L133 515Z" />
<glyph unicode="z" glyph-name="z" horiz-adv-x="407" d="M28 0H379V94H156L372 409V515H35V421H248L28 107V0Z" />
<glyph unicode="{" glyph-name="braceleft" horiz-adv-x="333" d="M313 -168V-98H268Q253 -98 243 -92T228 -74T220 -50T218 -22V156Q218 192 208 215T184 252T155 272T130 279V281Q140 283 155 289T184 310T208 346T218 401V582Q218 596 220 609T227 634T243
651T268 658H313V728H235Q214 728 194 720T158 696T132 657T122 602V415Q122 391 114 373T94 342T66 322T34 315V245Q50 245 65 238T93 218T114 185T122 140V-42Q122 -73 132 -96T157 -136T193 -160T235 -168H313Z" />
<glyph unicode="|" glyph-name="bar" horiz-adv-x="222" d="M67 -250H155V750H67V-250Z" />
<glyph unicode="}" glyph-name="braceright" horiz-adv-x="333" d="M20 -168H98Q119 -168 139 -160T175 -136T201 -97T211 -42V145Q211 169 219 187T239 218T267 238T299 245V315Q283 315 268 322T240 342T219 374T211 420V602Q211 633 201 656T176 696T140 720T98
728H20V658H65Q80 658 90 652T105 634T113 610T115 582V404Q115 368 125 345T149 308T178 288T203 281V279Q193 277 178 271T149 250T125 214T115 159V-22Q115 -36 113 -49T106 -74T90 -91T65 -98H20V-168Z" />
<glyph unicode="~" glyph-name="asciitilde" horiz-adv-x="600" d="M495 333Q478 307 458 285T407 262Q383 262 356 272T301 295Q273 308 246 318T194 328Q169 328 150 320T115 300T89 273T69 243L105 173Q122 199 142 221T193 244Q218 244 244 234T297 211Q324
199 351 189T406 178Q431 178 450 186T485 208T511 236T531 263L495 333Z" />
<glyph unicode="&#x80;" glyph-name="Euro" horiz-adv-x="520" d="M521 676Q483 694 448 701T371 708Q314 708 268 687T187 631T130 548T97 448H24L10 388H90Q87 349 90 310H24L10 250H97Q107 195 130 148T188 65T271 10T378 -10Q411 -10 441 -6T504 8L498 125Q477
113 449 108T397 102Q365 102 339 113T293 145T258 193T234 250H432L445 310H223Q221 330 221 349Q221 368 223 388H459L473 448H233Q241 479 255 507T289 555T335 587T395 599Q417 599 448 592T498 571L521 676Z" />
</font>
</defs>
</svg>
